<svg id="SvgjsSvg1011" width="288" height="288" xmlns="http://www.w3.org/2000/svg" version="1.1" xmlns:xlink="http://www.w3.org/1999/xlink" xmlns:svgjs="http://svgjs.com/svgjs"><circle id="SvgjsCircle1017" r="144" cx="144" cy="144" transform="matrix(0.7916,0,0,0.7916,30.009600000000006,30.009600000000006)" fill="#c49a6c"></circle><defs id="SvgjsDefs1012"></defs><g id="SvgjsG1013" transform="matrix(0.4652,0,0,0.4652,77.0112,77.0112)"><svg xmlns="http://www.w3.org/2000/svg" data-name="Layer 1" viewBox="0 0 24 24" width="288" height="288"><path d="M19,6H16V3a1,1,0,0,0-2,0V6H10V3A1,1,0,0,0,8,3V6H5A1,1,0,0,0,5,8H6v5a1,1,0,0,0,.29.71L9,16.41V21a1,1,0,0,0,2,0V17h2v4a1,1,0,0,0,2,0V16.41l2.71-2.7A1,1,0,0,0,18,13V8h1a1,1,0,0,0,0-2Zm-3,6.59L13.59,15H10.41L8,12.59V8h8ZM11,13h2a1,1,0,0,0,0-2H11a1,1,0,0,0,0,2Z" fill="#fcf9d1" class="color000 svgShape"></path></svg></g></svg>