<?xml version="1.0" standalone="no"?>
<!DOCTYPE svg PUBLIC "-//W3C//DTD SVG 20010904//EN"
 "http://www.w3.org/TR/2001/REC-SVG-20010904/DTD/svg10.dtd">
<svg version="1.0" xmlns="http://www.w3.org/2000/svg"
 width="40.000000pt" height="39.000000pt" viewBox="0 0 40.000000 39.000000"
 preserveAspectRatio="xMidYMid meet">

<g transform="translate(0.000000,39.000000) scale(0.100000,-0.100000)"
fill="#000000" stroke="none">
<path d="M43 366 c34 -26 13 -55 -25 -35 -22 12 -22 12 -7 -12 9 -13 33 -29
52 -34 20 -6 54 -28 76 -49 58 -57 75 -36 18 23 -25 25 -52 63 -61 84 -12 30
-20 37 -43 37 -25 -1 -26 -2 -10 -14z"/>
<path d="M275 281 c-53 -55 -103 -97 -110 -95 -7 3 -48 -28 -91 -70 l-79 -75
23 -23 23 -23 75 78 c40 43 74 85 74 95 0 20 128 -102 141 -136 12 -30 37 -38
56 -19 18 18 11 44 -15 55 -10 4 -50 35 -88 69 l-69 63 90 90 c49 49 85 90 79
90 -6 0 -55 -45 -109 -99z m113 -248 c-5 -26 -38 -29 -38 -4 0 15 6 21 21 21
14 0 19 -5 17 -17z"/>
</g>
</svg>
