<?xml version="1.0" standalone="no"?>
<!DOCTYPE svg PUBLIC "-//W3C//DTD SVG 20010904//EN"
 "http://www.w3.org/TR/2001/REC-SVG-20010904/DTD/svg10.dtd">
<svg version="1.0" xmlns="http://www.w3.org/2000/svg"
 width="40.000000pt" height="40.000000pt" viewBox="0 0 40.000000 40.000000"
 preserveAspectRatio="xMidYMid meet">

<g transform="translate(0.000000,40.000000) scale(0.100000,-0.100000)"
fill="#000000" stroke="none">
<path d="M250 374 c0 -31 35 -74 74 -94 l41 -20 7 21 c10 26 -14 84 -40 98
-32 17 -82 14 -82 -5z"/>
<path d="M216 343 c-9 -28 8 -67 40 -92 28 -22 69 -28 79 -11 3 6 0 10 -9 10
-22 0 -71 45 -89 81 -13 28 -15 30 -21 12z"/>
<path d="M124 192 c-88 -111 -105 -142 -93 -165 17 -29 70 -22 120 18 61 48
105 48 159 -1 40 -36 64 -39 44 -6 -14 22 -71 61 -101 68 -35 9 -65 -2 -114
-41 -46 -37 -89 -46 -89 -20 0 9 10 19 23 24 24 10 180 136 177 144 0 4 -14
19 -29 36 l-28 30 -69 -87z"/>
</g>
</svg>
