<?xml version="1.0" standalone="no"?>
<!DOCTYPE svg PUBLIC "-//W3C//DTD SVG 20010904//EN"
 "http://www.w3.org/TR/2001/REC-SVG-20010904/DTD/svg10.dtd">
<svg version="1.0" xmlns="http://www.w3.org/2000/svg"
 width="40.000000pt" height="40.000000pt" viewBox="0 0 40.000000 40.000000"
 preserveAspectRatio="xMidYMid meet">

<g transform="translate(0.000000,40.000000) scale(0.100000,-0.100000)"
fill="#000000" stroke="none">
<path d="M32 318 c-16 -16 -16 -220 0 -236 17 -17 319 -17 336 0 16 16 16 220
0 236 -17 17 -319 17 -336 0z m83 -60 c1 -15 7 -33 14 -42 12 -14 9 -16 -30
-16 -40 1 -42 2 -25 15 11 8 16 21 13 30 -8 20 3 47 17 42 6 -2 11 -15 11 -29z
m72 -10 c-3 -7 -5 -2 -5 12 0 14 2 19 5 13 2 -7 2 -19 0 -25z m148 2 c4 -6
-17 -10 -54 -10 -34 0 -61 4 -61 10 0 6 24 10 54 10 30 0 58 -4 61 -10z m-42
-37 c-13 -2 -35 -2 -50 0 -16 2 -5 4 22 4 28 0 40 -2 28 -4z m20 -30 c-18 -2
-48 -2 -65 0 -18 2 -4 4 32 4 36 0 50 -2 33 -4z m-173 -23 c0 -11 -6 -20 -12
-21 -10 0 -10 -2 0 -6 24 -9 11 -18 -28 -18 -31 -1 -40 3 -40 16 0 36 12 49
46 49 27 0 34 -4 34 -20z m47 -32 c-3 -7 -5 -2 -5 12 0 14 2 19 5 13 2 -7 2
-19 0 -25z m123 22 c0 -5 -20 -10 -45 -10 -25 0 -45 5 -45 10 0 6 20 10 45 10
25 0 45 -4 45 -10z"/>
<path d="M80 160 c0 -5 12 -10 26 -10 14 0 23 4 19 10 -3 6 -15 10 -26 10 -10
0 -19 -4 -19 -10z"/>
</g>
</svg>
