<?xml version="1.0" standalone="no"?>
<!DOCTYPE svg PUBLIC "-//W3C//DTD SVG 20010904//EN"
 "http://www.w3.org/TR/2001/REC-SVG-20010904/DTD/svg10.dtd">
<svg version="1.0" xmlns="http://www.w3.org/2000/svg"
 width="40.000000pt" height="40.000000pt" viewBox="0 0 40.000000 40.000000"
 preserveAspectRatio="xMidYMid meet">

<g transform="translate(0.000000,40.000000) scale(0.100000,-0.100000)"
fill="#000000" stroke="none">
<path d="M210 352 c0 -6 18 -16 39 -22 57 -15 101 -69 101 -123 0 -81 -58
-137 -141 -137 -35 0 -48 6 -80 39 -41 41 -49 61 -24 61 22 0 18 13 -10 40
l-25 23 -25 -23 c-30 -28 -32 -44 -6 -37 15 4 21 -2 26 -24 7 -33 73 -96 110
-105 97 -24 193 44 203 144 5 56 -20 112 -64 146 -30 21 -104 34 -104 18z"/>
<path d="M206 303 c-3 -3 -6 -29 -6 -57 0 -40 -5 -55 -26 -77 -40 -42 -19 -58
22 -18 31 30 34 38 34 90 0 54 -9 77 -24 62z"/>
<path d="M275 279 c-4 -6 -5 -13 -2 -16 7 -7 27 6 27 18 0 12 -17 12 -25 -2z"/>
<path d="M300 200 c0 -5 6 -10 14 -10 8 0 18 5 21 10 3 6 -3 10 -14 10 -12 0
-21 -4 -21 -10z"/>
<path d="M272 131 c2 -7 7 -12 11 -12 12 1 9 15 -3 20 -7 2 -11 -2 -8 -8z"/>
<path d="M205 107 c-4 -10 -5 -21 -1 -24 10 -10 18 4 13 24 -4 17 -4 17 -12 0z"/>
</g>
</svg>
