<?xml version="1.0" standalone="no"?>
<!DOCTYPE svg PUBLIC "-//W3C//DTD SVG 20010904//EN"
 "http://www.w3.org/TR/2001/REC-SVG-20010904/DTD/svg10.dtd">
<svg version="1.0" xmlns="http://www.w3.org/2000/svg"
 width="40.000000pt" height="40.000000pt" viewBox="0 0 40.000000 40.000000"
 preserveAspectRatio="xMidYMid meet">

<g transform="translate(0.000000,40.000000) scale(0.100000,-0.100000)"
fill="#000000" stroke="none">
<path d="M157 369 c-28 -16 -49 -67 -42 -100 8 -36 49 -69 86 -69 15 0 40 11
56 24 22 19 28 32 28 66 0 34 -6 47 -28 66 -29 25 -70 30 -100 13z"/>
<path d="M100 169 c-34 -21 -56 -53 -64 -94 -9 -43 5 -59 44 -50 29 6 32 10
26 37 -10 51 58 99 120 84 42 -11 76 -51 68 -82 -4 -17 -2 -29 7 -35 22 -14
56 -10 63 7 11 28 -13 92 -45 118 -36 30 -26 28 -117 30 -55 2 -80 -2 -102
-15z"/>
<path d="M157 113 c-10 -10 23 -43 43 -43 20 0 53 33 43 43 -8 9 -78 9 -86 0z"/>
<path d="M126 83 c-9 -10 -7 -53 3 -53 5 0 16 -3 25 -6 24 -9 21 43 -3 55 -10
6 -21 7 -25 4z"/>
<path d="M247 79 c-22 -13 -24 -64 -1 -55 9 3 20 6 25 6 11 0 12 47 1 54 -4 2
-15 0 -25 -5z"/>
<path d="M185 51 c-7 -12 12 -24 25 -16 11 7 4 25 -10 25 -5 0 -11 -4 -15 -9z"/>
</g>
</svg>
