<?xml version="1.0" standalone="no"?>
<!DOCTYPE svg PUBLIC "-//W3C//DTD SVG 20010904//EN"
 "http://www.w3.org/TR/2001/REC-SVG-20010904/DTD/svg10.dtd">
<svg version="1.0" xmlns="http://www.w3.org/2000/svg"
 width="40.000000pt" height="40.000000pt" viewBox="0 0 40.000000 40.000000"
 preserveAspectRatio="xMidYMid meet">

<g transform="translate(0.000000,40.000000) scale(0.100000,-0.100000)"
fill="#000000" stroke="none">
<path d="M120 356 c10 -28 -6 -86 -29 -100 -30 -19 5 -76 47 -76 23 0 62 43
62 69 0 20 -49 100 -74 120 -15 13 -16 12 -6 -13z m55 -125 c-7 -23 -45 -49
-45 -31 0 5 5 10 10 10 6 0 16 11 22 25 13 29 23 26 13 -4z"/>
<path d="M210 307 c22 -62 7 -119 -44 -166 -34 -32 -34 -74 -1 -106 33 -34 76
-33 117 4 28 25 33 36 33 73 0 48 -38 132 -86 188 -28 34 -29 34 -19 7z m80
-196 c0 -10 -9 -30 -20 -43 -22 -29 -60 -43 -60 -23 0 7 9 15 21 18 11 3 25
19 32 36 13 35 27 41 27 12z"/>
</g>
</svg>
