<svg id="SvgjsSvg1042" width="288" height="288" xmlns="http://www.w3.org/2000/svg" version="1.1" xmlns:xlink="http://www.w3.org/1999/xlink" xmlns:svgjs="http://svgjs.com/svgjs"><circle id="SvgjsCircle1049" r="144" cx="144" cy="144" transform="matrix(0.7916,0,0,0.7916,30.009600000000006,30.009600000000006)" fill="#c49a6c"></circle><defs id="SvgjsDefs1043"></defs><g id="SvgjsG1044" transform="matrix(0.4652,0,0,0.4652,77.0112,77.01110914581567)"><svg xmlns="http://www.w3.org/2000/svg" enable-background="new 0 0 100.018 244.126" viewBox="0 0 100.018 244.126" width="288" height="288"><path d="M8.574 153.369c.158 0 .316-.004.476-.014 4.41-.258 7.776-4.044 7.518-8.455C16.177 138.251 16 132.193 16 126.679c-.023-16.397 1.589-27.924 3.708-35.865.127-2.332.186-4.703.186-7.058.001-7.108-.5-14.046-1.001-19.192-.091-.931-.181-1.8-.268-2.603-4.292 3.21-8.558 8.544-11.748 16.671C2.771 89.013.014 104.021 0 126.679c0 5.855.189 12.224.595 19.158C.844 150.089 4.37 153.369 8.574 153.369zM23.895 83.757c-.001 5.083-.25 10.28-.93 15.096v15.971 18.939 98c0 6.83 5.537 12.363 12.363 12.363 6.828 0 12.365-5.533 12.365-12.363v-90.271h4.635v90.271c0 6.83 5.537 12.363 12.363 12.363 6.828 0 12.365-5.533 12.365-12.363v-98-18.939V98.869c-.684-4.819-.932-10.023-.933-15.113.002-9.686.9-18.944 1.505-24.091-3.296-1.602-6.183-1.983-7.937-2.005-.121-.006-.241-.018-.364-.018h-4.565l-2.587 20.225-9.75-11.75 7.648-8.475H39.946l7.648 8.475-9.75 11.75-2.587-20.225h-4.564c-.134 0-.264.013-.396.02-1.758.024-4.63.408-7.907 2.002C22.995 64.81 23.893 74.07 23.895 83.757zM50.01 74.869c1.519 0 2.75 1.231 2.75 2.75 0 1.519-1.231 2.75-2.75 2.75-1.519 0-2.75-1.231-2.75-2.75C47.26 76.099 48.491 74.869 50.01 74.869zM50.01 87.535c1.519 0 2.75 1.232 2.75 2.75 0 1.52-1.231 2.75-2.75 2.75-1.519 0-2.75-1.23-2.75-2.75C47.26 88.766 48.491 87.535 50.01 87.535zM81.126 64.564c-.502 5.146-1.003 12.084-1.003 19.191-.001 2.342.058 4.7.184 7.02 2.127 7.941 3.719 19.504 3.711 35.904 0 5.515-.177 11.572-.565 18.223-.259 4.412 3.109 8.195 7.52 8.454.158.009.315.015.472.015 4.208 0 7.733-3.283 7.98-7.536.404-6.933.593-13.298.593-19.155-.04-30.182-4.862-46.886-11.435-56.932-2.229-3.382-4.714-5.923-7.191-7.773C81.305 62.774 81.215 63.639 81.126 64.564zM53.669 51.642c10.686-1.748 18.84-11.02 18.84-22.199 0-4.13-1.118-7.997-3.06-11.323-.329.232-.775.397-1.381.456-7.622.75-12.195-1.5-32.012 7-3.98 1.707-6.687 2.302-8.476 2.157-.042.564-.071 1.134-.071 1.71 0 11.18 8.156 20.451 18.841 22.199 1.191.195 2.413.301 3.659.301S52.478 51.838 53.669 51.642z" fill="#fcf9d1" class="color000 svgShape"></path><path d="M36.057,23.201c19.816-8.5,24.39-6.25,32.012-7c0.856-0.084,1.409-0.366,1.724-0.783
		c2.493-3.293-10.638-15.521-19.917-13.967c-1.875,0.315-3.609,0.678-5.216,1.08c-0.511-1.801-2.409-2.885-4.32-2.426
		c-1.96,0.471-3.183,2.377-2.731,4.259c0.037,0.155,0.1,0.297,0.156,0.442c-3.465,1.488-5.886,3.19-7.371,4.894
		c-1.724,1.979-6.584,9.696-5.659,13.518C25.331,25.674,28.306,26.525,36.057,23.201z" fill="#fcf9d1" class="color000 svgShape"></path></svg></g></svg>